<?xml version="1.0" standalone="no"?>
<!DOCTYPE svg PUBLIC "-//W3C//DTD SVG 20010904//EN"
 "http://www.w3.org/TR/2001/REC-SVG-20010904/DTD/svg10.dtd">
<svg version="1.0" xmlns="http://www.w3.org/2000/svg"
 width="1603.000000pt" height="1603.000000pt" viewBox="0 0 1603.000000 1603.000000"
 preserveAspectRatio="xMidYMid meet">
<metadata>
Created by potrace 1.14, written by Peter Selinger 2001-2017
</metadata>
<g transform="translate(0.000000,1603.000000) scale(0.100000,-0.100000)"
fill="#000000" stroke="none">
<path d="M10600 11999 c-196 -23 -424 -112 -558 -220 -123 -98 -237 -273 -278
-424 -22 -83 -30 -277 -15 -371 53 -326 257 -564 681 -794 63 -35 151 -86 195
-115 44 -29 132 -86 195 -128 144 -94 249 -200 275 -276 41 -126 -30 -263
-169 -327 -152 -69 -432 -56 -676 31 -83 30 -292 132 -401 196 -39 22 -73 39
-75 36 -7 -7 48 -797 57 -823 6 -17 37 -29 181 -67 312 -83 471 -103 733 -94
351 13 592 104 793 301 175 169 263 357 292 618 28 245 -35 490 -167 653 -130
160 -429 369 -818 570 -250 130 -329 189 -371 280 -78 166 27 320 245 357 170
29 444 -56 779 -242 l92 -51 0 370 0 370 -122 40 c-300 97 -622 138 -868 110z"/>
<path d="M3660 10315 l0 -1595 380 0 380 0 0 670 0 670 610 0 610 0 0 -670 0
-670 375 0 375 0 0 1595 0 1595 -375 0 -375 0 0 -585 0 -585 -610 0 -610 0 0
585 0 585 -380 0 -380 0 0 -1595z"/>
<path d="M6760 11575 l0 -335 505 0 505 0 0 -1260 0 -1260 380 0 380 0 0 1260
0 1260 505 0 505 0 0 335 0 335 -1390 0 -1390 0 0 -335z"/>
<path d="M7342 6500 c-125 -19 -202 -93 -210 -200 -8 -115 63 -186 232 -230
183 -48 214 -59 240 -91 18 -21 26 -42 26 -67 0 -113 -141 -170 -302 -122 -55
16 -105 68 -120 124 -8 32 -16 45 -26 41 -7 -3 -30 -5 -49 -5 -36 0 -36 0 -30
-39 19 -143 142 -231 326 -231 114 0 175 22 237 84 42 41 54 61 63 103 17 83
0 142 -61 200 -42 41 -76 55 -228 93 -68 17 -136 38 -151 46 -43 22 -63 58
-56 100 12 72 68 105 178 105 94 0 150 -26 178 -85 12 -23 21 -48 21 -55 0
-10 12 -12 48 -6 26 4 49 8 51 10 10 10 -13 77 -40 118 -45 68 -109 101 -219
110 -30 3 -79 1 -108 -3z"/>
<path d="M3700 6090 l0 -402 203 4 c229 6 267 14 339 78 85 75 124 196 115
361 -8 168 -61 267 -172 324 l-58 30 -214 3 -213 3 0 -401z m427 287 c89 -48
128 -146 121 -306 -6 -120 -25 -176 -77 -227 -46 -45 -105 -59 -246 -59 l-120
0 -3 309 -2 308 147 -4 c114 -3 155 -8 180 -21z"/>
<path d="M4500 6434 l0 -55 48 3 47 3 3 53 3 52 -50 0 -51 0 0 -56z"/>
<path d="M5370 6435 l0 -55 50 0 50 0 0 55 0 55 -50 0 -50 0 0 -55z"/>
<path d="M6560 6090 l0 -400 45 0 45 0 0 400 0 400 -45 0 -45 0 0 -400z"/>
<path d="M8490 6090 l0 -400 50 0 50 0 0 400 0 400 -50 0 -50 0 0 -400z"/>
<path d="M9680 6435 l0 -55 50 0 50 0 0 55 0 55 -50 0 -50 0 0 -55z"/>
<path d="M5683 6444 l-43 -26 0 -74 0 -74 -35 0 c-33 0 -35 -2 -35 -35 0 -33
2 -35 35 -35 l35 0 0 -202 c0 -233 7 -271 53 -295 30 -15 140 -23 152 -11 3 3
3 24 -1 47 -6 39 -9 42 -31 36 -15 -3 -34 0 -49 10 -24 15 -24 16 -24 215 l0
200 50 0 50 0 0 35 0 35 -50 0 -50 0 0 100 c0 55 -3 100 -7 100 -5 -1 -27 -12
-50 -26z"/>
<path d="M9433 6444 l-43 -25 0 -75 0 -74 -35 0 c-33 0 -35 -2 -35 -35 0 -33
2 -35 35 -35 l35 0 0 -215 c0 -231 5 -261 52 -286 21 -12 143 -17 153 -7 3 3
2 23 -3 44 -7 35 -11 39 -40 39 -63 0 -67 14 -67 228 l0 192 48 3 c46 3 47 4
47 37 0 33 -1 34 -47 37 l-48 3 -5 97 -5 98 -42 -26z"/>
<path d="M8070 6279 c-30 -4 -67 -11 -81 -17 -40 -16 -98 -71 -120 -113 -40
-80 -43 -254 -4 -328 24 -48 65 -91 109 -114 59 -32 203 -32 262 0 56 30 109
93 125 151 19 65 17 195 -4 258 -17 50 -77 119 -124 143 -37 19 -104 27 -163
20z m117 -98 c115 -61 121 -313 10 -395 -41 -30 -140 -30 -184 2 -50 36 -76
100 -76 192 0 123 48 201 134 219 37 8 82 1 116 -18z"/>
<path d="M10107 6278 c-137 -28 -207 -128 -207 -293 0 -137 39 -220 129 -273
41 -24 56 -27 136 -27 104 0 148 18 207 83 50 55 63 100 63 217 0 80 -5 109
-21 145 -23 50 -73 103 -119 127 -38 20 -139 31 -188 21z m132 -93 c124 -64
135 -313 18 -399 -41 -30 -140 -30 -183 1 -49 35 -68 85 -72 188 -3 78 0 96
20 135 31 60 77 90 140 90 27 0 62 -7 77 -15z"/>
<path d="M4854 6261 c-89 -40 -139 -141 -139 -281 0 -67 5 -96 24 -137 63
-141 226 -195 340 -112 l41 29 0 -55 c0 -69 -28 -128 -71 -151 -71 -36 -188
-11 -216 48 -10 19 -23 27 -54 32 -23 4 -44 4 -47 2 -11 -12 11 -78 35 -107
42 -50 95 -69 193 -69 124 0 189 33 234 115 20 38 21 55 24 368 l3 327 -45 0
c-45 0 -46 -1 -46 -32 l0 -31 -22 20 c-61 56 -173 71 -254 34z m196 -83 c46
-32 72 -87 78 -166 5 -83 -10 -142 -49 -187 -83 -95 -218 -57 -255 73 -46 157
24 302 146 302 32 0 57 -7 80 -22z"/>
<path d="M6056 6265 c-60 -21 -88 -46 -115 -99 -28 -55 -21 -66 42 -66 26 0
37 4 37 15 0 8 13 29 28 46 33 37 90 50 160 38 58 -11 89 -41 98 -96 l6 -42
-39 -10 c-21 -6 -74 -15 -118 -21 -108 -15 -166 -35 -203 -71 -57 -56 -66
-147 -20 -212 51 -72 186 -89 294 -38 34 16 65 34 68 40 11 17 26 13 26 -8 0
-42 10 -51 62 -51 48 0 50 1 43 23 -9 28 -23 234 -24 357 -1 118 -17 155 -81
188 -36 18 -60 22 -135 22 -51 -1 -107 -7 -129 -15z m249 -342 c-14 -119 -84
-172 -216 -164 -41 2 -79 43 -79 86 0 51 33 80 106 94 32 7 84 18 114 25 87
21 83 23 75 -41z"/>
<path d="M10722 6259 c-23 -12 -47 -30 -53 -40 -15 -30 -29 -22 -29 16 0 34
-1 35 -40 35 l-40 0 0 -290 0 -290 44 0 43 0 5 198 c5 216 11 241 69 285 38
27 108 33 148 12 54 -28 61 -59 61 -290 l0 -205 50 0 50 0 0 219 c0 136 -4
231 -11 252 -15 43 -55 88 -96 105 -50 22 -150 18 -201 -7z"/>
<path d="M11254 6261 c-84 -38 -121 -149 -72 -220 30 -44 72 -66 198 -100 109
-31 140 -50 140 -88 0 -59 -49 -93 -132 -93 -69 0 -115 27 -136 81 -15 38 -17
39 -51 33 -63 -10 -62 -9 -45 -58 19 -56 78 -111 136 -126 63 -18 174 -9 228
17 64 31 100 90 100 161 0 50 -3 58 -38 92 -30 30 -56 43 -127 65 -50 14 -108
32 -129 38 -22 7 -48 24 -60 40 l-20 27 21 28 c54 73 202 58 234 -24 8 -22 13
-24 51 -18 24 4 45 8 47 11 3 2 -4 25 -15 51 -16 40 -27 51 -73 75 -46 23 -67
27 -135 27 -57 0 -93 -6 -122 -19z"/>
<path d="M4500 5980 l0 -290 50 0 50 0 0 290 0 290 -50 0 -50 0 0 -290z"/>
<path d="M5370 5980 l0 -290 50 0 50 0 0 290 0 290 -50 0 -50 0 0 -290z"/>
<path d="M8740 6070 c0 -213 9 -284 42 -326 30 -37 94 -64 156 -64 63 0 106
16 155 60 l37 32 0 -41 0 -41 40 0 40 0 0 290 0 290 -44 0 -44 0 -4 -198 c-3
-175 -6 -201 -23 -232 -41 -71 -154 -100 -207 -53 -42 37 -48 71 -48 283 l0
200 -50 0 -50 0 0 -200z"/>
<path d="M9680 5980 l0 -290 50 0 50 0 0 290 0 290 -50 0 -50 0 0 -290z"/>
<path d="M3662 4488 l3 -623 3963 -3 3962 -2 0 625 0 625 -3965 0 -3965 0 2
-622z"/>
</g>
</svg>
